# xmcd
#
# Track frame offsets:
#	150
#	14934
#	25280
#	45977
#	59081
#	76151
#	89127
#	105039
#	127069
#	138223
#	154731
#
# Disc length: 2279 seconds
#
# Revision: 0
# Processed by: cddbd v1.5.2PL0 Copyright (c) Steve Scherf et al.
# Submitted via: dBpowerAMP V4.0
#
DISCID=8e08e50b
DTITLE=Lo-Fi Breakdown - This Piece of Ground
DYEAR=2008
DGENRE=Bluegrass
TTITLE0=Penn Station
TTITLE1=Stoney Lonesome
TTITLE2=If You Don't Love Me Anymore
TTITLE3=Wedding Shoes
TTITLE4=Collide
TTITLE5=Until They're Old
TTITLE6=Unconcho
TTITLE7=With You Off My Mind
TTITLE8=Wandering Boy
TTITLE9=White Oak On the Hill
TTITLE10=Down in the Willow Garden
EXTD=
EXTT0=
EXTT1=
EXTT2=
EXTT3=
EXTT4=
EXTT5=
EXTT6=
EXTT7=
EXTT8=
EXTT9=
EXTT10=
PLAYORDER=
